<svg xmlns="http://www.w3.org/2000/svg" width="164" height="164" viewBox="0 0 164 164"><g id="outline"><path id="5" d="M 28.040,148.735 C 25.337,132.932 28.304,114.683 34.843,106.894 C 36.579,104.826 38,102.654 38,102.067 C 38,101.480 39.861,101 42.135,101 C 42.135,101 46.270,101 46.270,101 C 46.270,101 43.501,103.178 43.501,103.178 C 37.508,107.892 33.331,123.743 34.620,136.879 C 35.572,146.579 35.895,146.955 42.747,146.340 C 50.551,145.640 57.397,143.409 64.137,139.370 C 75.440,132.597 79.562,125.230 80.711,109.750 C 81.222,102.857 81.507,102 83.287,102 C 85.181,102 85.251,102.440 84.612,110.250 C 84.240,114.787 83.019,121.923 81.897,126.107 C 79.913,133.507 79.651,133.894 72.303,140.316 C 64.998,146.699 53.061,153 48.270,153 C 47.242,153 45.920,153.480 45.333,154.067 C 44.746,154.654 40.905,155.388 36.797,155.699 C 36.797,155.699 29.328,156.264 29.328,156.264 C 29.328,156.264 28.040,148.735 28.040,148.735" stroke="#B29EB3" fill="#B29EB3" stroke-width="1" />
  <path id="1" d="M 31.292,98.109 C 23.369,94.347 18.395,90.328 13.515,83.744 C 11.377,80.860 9.149,78.050 8.564,77.500 C 6.429,75.494 0.941,62.763 1.479,61.066 C 2.126,59.028 15.637,52.918 24.644,50.589 C 32.160,48.646 40.843,48.570 47.500,50.391 C 50.250,51.143 53.159,51.925 53.964,52.129 C 55.405,52.494 58,56.358 58,58.140 C 58,58.641 56.617,58.336 54.925,57.461 C 50.142,54.987 41.917,54.021 34.541,55.066 C 26.929,56.144 12.106,61.559 11.346,63.540 C 10.427,65.934 18.056,79.655 23.452,85.316 C 33.782,96.154 45.329,99.226 60.298,95.119 C 69.484,92.599 68.655,92.658 69.351,94.473 C 70.227,96.755 58.307,100.011 47,100.579 C 38.052,101.028 37.140,100.885 31.292,98.109" stroke="#5C9892" fill="#5C9892" stroke-width="1" />
  <path id="4" d="M 117.500,99.921 C 117.500,99.921 114.500,98.011 114.500,98.011 C 114.500,98.011 117.124,98.005 117.124,98.005 C 123.941,97.991 134.091,92.078 140.651,84.299 C 144.496,79.739 151,68.275 151,66.058 C 151,64.938 143.091,61.105 135.500,58.545 C 128.833,56.297 116.582,55.473 111.272,56.916 C 106.715,58.154 106.355,58.546 98.900,70.349 C 94.717,76.972 93.710,78.004 92.456,76.963 C 91.163,75.890 91.304,75.290 93.545,72.352 C 94.962,70.494 97.213,66.505 98.548,63.487 C 99.883,60.469 101.323,58 101.748,58 C 102.173,58 103.705,56.901 112.142,52.718 C 117.458,50.502 125.520,49.827 132.280,51.031 C 140.102,52.424 154.201,58.383 158.099,61.943 C 158.099,61.943 161.060,64.648 161.060,64.648 C 161.060,64.648 157.993,71.074 157.993,71.074 C 151.691,84.280 138.077,97.430 128,100.046 C 120.769,101.923 120.640,101.921 117.500,99.921" stroke="#F5CBA0" fill="#F5CBA0" stroke-width="1" />
  </g><g id="symmetrical pattern"><path id="6" d="M 117.166,156.466 C 104.448,153.705 88.877,144.470 81.823,135.502 C 80.101,133.313 79.997,132.539 81.013,129.459 C 81.013,129.459 82.179,125.927 82.179,125.927 C 82.179,125.927 85.068,130.290 85.068,130.290 C 89.420,136.860 91.620,138.609 101.500,143.359 C 107.656,146.318 121.598,148.802 123.179,147.221 C 124.808,145.592 125.451,124.463 124.074,117.844 C 123.427,114.733 121.528,110.121 119.854,107.594 C 117.290,103.724 116.307,103 113.606,103 C 111.843,103 109.973,102.621 109.450,102.158 C 108.928,101.695 106.025,100.785 103,100.134 C 96.311,98.695 94.529,97.670 95.287,95.695 C 95.797,94.365 96.357,94.357 100.049,95.629 C 102.350,96.422 106.317,97.317 108.866,97.618 C 116.472,98.517 118.787,99.931 124.027,106.878 C 129.476,114.102 131.757,120.127 132.685,129.739 C 133.305,136.164 131.491,153.146 129.853,156.250 C 128.759,158.323 125.943,158.371 117.166,156.466" stroke="#94A7A8" fill="#94A7A8" stroke-width="1" />
  </g><g id="floral shape"><path id="3" d="M 69.074,70.482 C 66.833,67.513 63.425,63.828 61.500,62.292 C 59.575,60.756 58,58.739 58,57.809 C 58,56.879 57.608,55.876 57.129,55.580 C 56.650,55.284 56.029,52.670 55.748,49.771 C 55.025,42.318 57.785,32.853 62.917,25.191 C 67.324,18.611 78.142,6.129 80.728,4.638 C 81.846,3.993 83.773,5.478 88.362,10.522 C 91.738,14.233 95.762,19.112 97.304,21.365 C 98.846,23.618 100.815,26.243 101.679,27.198 C 104.021,29.786 107,41.638 107,48.368 C 107,54.364 106.501,55.286 101.764,58.044 C 100.220,58.943 100.137,58.769 101.014,56.462 C 104.044,48.493 100.147,34.098 92.531,25.128 C 86.606,18.149 83.178,15 81.503,15 C 76.899,15 62,35.322 62,41.601 C 62,42.856 61.499,44.192 60.887,44.570 C 60.200,44.995 59.942,47.288 60.214,50.567 C 60.619,55.449 61.149,56.405 66.812,62.458 C 74.128,70.278 76.678,74.525 74.550,75.342 C 73.673,75.679 71.627,73.864 69.074,70.482" stroke="#F1696F" fill="#F1696F" stroke-width="1" />
</g></svg>
